M48
; DRILL file {KiCad 9.0.4} date 2025-09-23T13:55:49-0400
; FORMAT={-:-/ absolute / metric / decimal}
; #@! TF.CreationDate,2025-09-23T13:55:49-04:00
; #@! TF.GenerationSoftware,Kicad,Pcbnew,9.0.4
; #@! TF.FileFunction,Plated,1,2,PTH
FMAT,2
METRIC
; #@! TA.AperFunction,Plated,PTH,ViaDrill
T1C0.300
; #@! TA.AperFunction,Plated,PTH,ComponentDrill
T2C0.700
; #@! TA.AperFunction,Plated,PTH,ComponentDrill
T3C0.750
; #@! TA.AperFunction,Plated,PTH,ComponentDrill
T4C0.900
; #@! TA.AperFunction,Plated,PTH,ComponentDrill
T5C1.000
%
G90
G05
T1
X92.844Y-71.217
X93.547Y-72.275
X98.27Y-98.378
X100.477Y-70.598
X101.298Y-70.345
X106.775Y-80.558
X110.237Y-68.393
X110.237Y-89.052
X112.737Y-91.28
X116.086Y-106.269
X119.011Y-94.632
X126.258Y-75.365
X128.572Y-103.567
X128.761Y-104.747
X129.96Y-103.928
X131.307Y-70.568
X131.36Y-73.947
T2
X108.712Y-71.628
X108.712Y-73.914
X113.792Y-71.628
X113.792Y-73.914
X115.824Y-71.628
X115.824Y-73.914
X120.904Y-71.628
X120.904Y-73.914
X122.936Y-71.628
X122.936Y-73.914
X128.016Y-71.628
X128.016Y-73.914
X130.048Y-71.628
X130.048Y-73.914
X135.128Y-71.628
X135.128Y-73.914
T3
X97.536Y-72.898
X98.806Y-72.898
X100.076Y-72.898
X103.378Y-72.898
X104.648Y-72.898
X105.918Y-72.898
X130.73Y-97.0
X130.73Y-101.89
X130.73Y-106.89
X130.73Y-111.89
X132.0Y-97.0
X132.0Y-101.89
X132.0Y-106.89
X132.0Y-111.89
X133.27Y-97.0
X133.27Y-101.89
X133.27Y-106.89
X133.27Y-111.89
T4
X87.376Y-71.628
X87.67Y-114.689
X87.67Y-117.989
X89.916Y-71.628
X90.17Y-114.689
X90.17Y-117.989
X92.67Y-114.689
X92.67Y-117.989
T5
X89.38Y-96.592
X89.38Y-111.832
X91.92Y-96.592
X91.92Y-111.832
X94.46Y-96.592
X94.46Y-111.832
X97.0Y-96.592
X97.0Y-111.832
X99.54Y-96.592
X99.54Y-111.832
X102.08Y-96.592
X102.08Y-111.832
X104.394Y-77.216
X104.394Y-92.456
X104.62Y-96.592
X104.62Y-111.832
X106.934Y-77.216
X106.934Y-92.456
X107.16Y-96.592
X107.16Y-111.832
X109.474Y-77.216
X109.474Y-92.456
X109.7Y-96.592
X109.7Y-111.832
X112.014Y-77.216
X112.014Y-92.456
X112.24Y-96.592
X112.24Y-111.832
X114.554Y-77.216
X114.554Y-92.456
X114.78Y-96.592
X114.78Y-111.832
X117.094Y-77.216
X117.094Y-92.456
X117.32Y-96.592
X117.32Y-111.832
X119.86Y-96.592
X119.86Y-111.832
X122.4Y-96.592
X122.4Y-111.832
X124.94Y-96.592
X124.94Y-111.832
M30
