%TF.GenerationSoftware,KiCad,Pcbnew,9.0.4*%
%TF.CreationDate,2025-09-23T13:55:46-04:00*%
%TF.ProjectId,Thermometer,54686572-6d6f-46d6-9574-65722e6b6963,rev?*%
%TF.SameCoordinates,Original*%
%TF.FileFunction,Copper,L1,Top*%
%TF.FilePolarity,Positive*%
%FSLAX46Y46*%
G04 Gerber Fmt 4.6, Leading zero omitted, Abs format (unit mm)*
G04 Created by KiCad (PCBNEW 9.0.4) date 2025-09-23 13:55:46*
%MOMM*%
%LPD*%
G01*
G04 APERTURE LIST*
G04 Aperture macros list*
%AMRoundRect*
0 Rectangle with rounded corners*
0 $1 Rounding radius*
0 $2 $3 $4 $5 $6 $7 $8 $9 X,Y pos of 4 corners*
0 Add a 4 corners polygon primitive as box body*
4,1,4,$2,$3,$4,$5,$6,$7,$8,$9,$2,$3,0*
0 Add four circle primitives for the rounded corners*
1,1,$1+$1,$2,$3*
1,1,$1+$1,$4,$5*
1,1,$1+$1,$6,$7*
1,1,$1+$1,$8,$9*
0 Add four rect primitives between the rounded corners*
20,1,$1+$1,$2,$3,$4,$5,0*
20,1,$1+$1,$4,$5,$6,$7,0*
20,1,$1+$1,$6,$7,$8,$9,0*
20,1,$1+$1,$8,$9,$2,$3,0*%
G04 Aperture macros list end*
%TA.AperFunction,ComponentPad*%
%ADD10O,1.050000X1.500000*%
%TD*%
%TA.AperFunction,ComponentPad*%
%ADD11R,1.050000X1.500000*%
%TD*%
%TA.AperFunction,ComponentPad*%
%ADD12O,1.600000X1.600000*%
%TD*%
%TA.AperFunction,ComponentPad*%
%ADD13R,1.600000X1.600000*%
%TD*%
%TA.AperFunction,ComponentPad*%
%ADD14C,1.400000*%
%TD*%
%TA.AperFunction,ComponentPad*%
%ADD15RoundRect,0.250000X-0.450000X-0.450000X0.450000X-0.450000X0.450000X0.450000X-0.450000X0.450000X0*%
%TD*%
%TA.AperFunction,ComponentPad*%
%ADD16C,1.500000*%
%TD*%
%TA.AperFunction,ComponentPad*%
%ADD17R,1.500000X1.500000*%
%TD*%
%TA.AperFunction,ComponentPad*%
%ADD18R,1.800000X1.800000*%
%TD*%
%TA.AperFunction,ComponentPad*%
%ADD19C,1.800000*%
%TD*%
%TA.AperFunction,ViaPad*%
%ADD20C,0.600000*%
%TD*%
%TA.AperFunction,Conductor*%
%ADD21C,0.200000*%
%TD*%
G04 APERTURE END LIST*
D10*
%TO.P,U2,3,V_{DD}*%
%TO.N,Net-(A1-+5V)*%
X103378000Y-72898000D03*
%TO.P,U2,2,DQ*%
%TO.N,Net-(U2-DQ)*%
X104648000Y-72898000D03*
D11*
%TO.P,U2,1,GND*%
%TO.N,Net-(SW1-C)*%
X105918000Y-72898000D03*
%TD*%
D12*
%TO.P,Arduino Nano,30,VIN*%
%TO.N,unconnected-(A1-VIN-Pad30)*%
X124940000Y-111832000D03*
%TO.P,Arduino Nano,29,GND*%
%TO.N,Net-(A1-GND-Pad29)*%
X122400000Y-111832000D03*
%TO.P,Arduino Nano,28,~{RESET}*%
%TO.N,unconnected-(A1-~{RESET}-Pad28)*%
X119860000Y-111832000D03*
%TO.P,Arduino Nano,27,+5V*%
%TO.N,Net-(A1-+5V)*%
X117320000Y-111832000D03*
%TO.P,Arduino Nano,26,A7*%
%TO.N,unconnected-(A1-A7-Pad26)*%
X114780000Y-111832000D03*
%TO.P,Arduino Nano,25,A6*%
%TO.N,unconnected-(A1-A6-Pad25)*%
X112240000Y-111832000D03*
%TO.P,Arduino Nano,24,A5*%
%TO.N,unconnected-(A1-A5-Pad24)*%
X109700000Y-111832000D03*
%TO.P,Arduino Nano,23,A4*%
%TO.N,unconnected-(A1-A4-Pad23)*%
X107160000Y-111832000D03*
%TO.P,Arduino Nano,22,A3*%
%TO.N,Net-(A1-A3)*%
X104620000Y-111832000D03*
%TO.P,Arduino Nano,21,A2*%
%TO.N,Net-(A1-A2)*%
X102080000Y-111832000D03*
%TO.P,Arduino Nano,20,A1*%
%TO.N,Net-(A1-A1)*%
X99540000Y-111832000D03*
%TO.P,Arduino Nano,19,A0*%
%TO.N,Net-(A1-A0)*%
X97000000Y-111832000D03*
%TO.P,Arduino Nano,18,AREF*%
%TO.N,unconnected-(A1-AREF-Pad18)*%
X94460000Y-111832000D03*
%TO.P,Arduino Nano,17,3V3*%
%TO.N,unconnected-(A1-3V3-Pad17)*%
X91920000Y-111832000D03*
%TO.P,Arduino Nano,16,D13*%
%TO.N,Net-(A1-D13)*%
X89380000Y-111832000D03*
%TO.P,Arduino Nano,15,D12*%
%TO.N,Net-(A1-D12)*%
X89380000Y-96592000D03*
%TO.P,Arduino Nano,14,D11*%
%TO.N,Net-(A1-D11)*%
X91920000Y-96592000D03*
%TO.P,Arduino Nano,13,D10*%
%TO.N,Net-(A1-D10)*%
X94460000Y-96592000D03*
%TO.P,Arduino Nano,12,D9*%
%TO.N,Net-(A1-D9)*%
X97000000Y-96592000D03*
%TO.P,Arduino Nano,11,D8*%
%TO.N,Net-(A1-D8)*%
X99540000Y-96592000D03*
%TO.P,Arduino Nano,10,D7*%
%TO.N,Net-(A1-D7)*%
X102080000Y-96592000D03*
%TO.P,Arduino Nano,9,D6*%
%TO.N,Net-(A1-D6)*%
X104620000Y-96592000D03*
%TO.P,Arduino Nano,8,D5*%
%TO.N,Net-(A1-D5)*%
X107160000Y-96592000D03*
%TO.P,Arduino Nano,7,D4*%
%TO.N,Net-(A1-D4)*%
X109700000Y-96592000D03*
%TO.P,Arduino Nano,6,D3*%
%TO.N,Net-(A1-D3)*%
X112240000Y-96592000D03*
%TO.P,Arduino Nano,5,D2*%
%TO.N,Net-(A1-D2)*%
X114780000Y-96592000D03*
%TO.P,Arduino Nano,4,GND*%
%TO.N,Net-(SW1-C)*%
X117320000Y-96592000D03*
%TO.P,Arduino Nano,3,~{RESET}*%
%TO.N,unconnected-(A1-~{RESET}-Pad3)*%
X119860000Y-96592000D03*
%TO.P,Arduino Nano,2,D0/RX*%
%TO.N,unconnected-(A1-D0{slash}RX-Pad2)*%
X122400000Y-96592000D03*
D13*
%TO.P,Arduino Nano,1,D1/TX*%
%TO.N,unconnected-(A1-D1{slash}TX-Pad1)*%
X124940000Y-96592000D03*
%TD*%
D14*
%TO.P,R10,2*%
%TO.N,Net-(Q4-B)*%
X120904000Y-71628000D03*
%TO.P,R10,1*%
%TO.N,Net-(A1-D13)*%
X115824000Y-71628000D03*
%TD*%
%TO.P,R9,2*%
%TO.N,Net-(Q3-B)*%
X108712000Y-73914000D03*
%TO.P,R9,1*%
%TO.N,Net-(A1-D12)*%
X113792000Y-73914000D03*
%TD*%
%TO.P,R8,2*%
%TO.N,Net-(Q2-B)*%
X108712000Y-71628000D03*
%TO.P,R8,1*%
%TO.N,Net-(A1-D11)*%
X113792000Y-71628000D03*
%TD*%
%TO.P,R7,1*%
%TO.N,Net-(U2-DQ)*%
X135128000Y-71628000D03*
%TO.P,R7,2*%
%TO.N,Net-(A1-A0)*%
X130048000Y-71628000D03*
%TD*%
%TO.P,R6,1*%
%TO.N,Net-(U3-DQ)*%
X128016000Y-71628000D03*
%TO.P,R6,2*%
%TO.N,Net-(A1-A1)*%
X122936000Y-71628000D03*
%TD*%
%TO.P,R5,1*%
%TO.N,Net-(A1-GND-Pad29)*%
X128016000Y-73914000D03*
%TO.P,R5,2*%
%TO.N,Net-(Q1-E)*%
X122936000Y-73914000D03*
%TD*%
%TO.P,R4,2*%
%TO.N,Net-(Q1-B)*%
X115824000Y-73914000D03*
%TO.P,R4,1*%
%TO.N,Net-(A1-D9)*%
X120904000Y-73914000D03*
%TD*%
%TO.P,R2,1*%
%TO.N,Net-(D1-K)*%
X135128000Y-73914000D03*
%TO.P,R2,2*%
%TO.N,Net-(SW1-C)*%
X130048000Y-73914000D03*
%TD*%
%TO.P,SW1,6*%
%TO.N,N/C*%
X87670000Y-117989500D03*
%TO.P,SW1,5*%
X90170000Y-117989500D03*
%TO.P,SW1,4*%
X92670000Y-117989500D03*
%TO.P,SW1,3,C*%
%TO.N,Net-(SW1-C)*%
X92670000Y-114689500D03*
%TO.P,SW1,2,B*%
%TO.N,Net-(A1-A2)*%
X90170000Y-114689500D03*
D15*
%TO.P,SW1,1,A*%
%TO.N,Net-(A1-+5V)*%
X87670000Y-114689500D03*
%TD*%
D10*
%TO.P,Q3,3,E*%
%TO.N,Net-(Q1-E)*%
X130730000Y-106890000D03*
%TO.P,Q3,2,B*%
%TO.N,Net-(Q3-B)*%
X132000000Y-106890000D03*
D11*
%TO.P,Q3,1,C*%
%TO.N,Net-(Q3-C)*%
X133270000Y-106890000D03*
%TD*%
D10*
%TO.P,Q2,3,E*%
%TO.N,Net-(Q1-E)*%
X130730000Y-101890000D03*
%TO.P,Q2,2,B*%
%TO.N,Net-(Q2-B)*%
X132000000Y-101890000D03*
D11*
%TO.P,Q2,1,C*%
%TO.N,Net-(Q2-C)*%
X133270000Y-101890000D03*
%TD*%
D10*
%TO.P,Q4,3,E*%
%TO.N,Net-(Q1-E)*%
X130730000Y-111890000D03*
%TO.P,Q4,2,B*%
%TO.N,Net-(Q4-B)*%
X132000000Y-111890000D03*
D11*
%TO.P,Q4,1,C*%
%TO.N,Net-(Q4-C)*%
X133270000Y-111890000D03*
%TD*%
D10*
%TO.P,Q1,3,E*%
%TO.N,Net-(Q1-E)*%
X130730000Y-97000000D03*
%TO.P,Q1,2,B*%
%TO.N,Net-(Q1-B)*%
X132000000Y-97000000D03*
D11*
%TO.P,Q1,1,C*%
%TO.N,Net-(Q1-C)*%
X133270000Y-97000000D03*
%TD*%
D10*
%TO.P,U3,3,V_{DD}*%
%TO.N,Net-(A1-+5V)*%
X97536000Y-72898000D03*
%TO.P,U3,2,DQ*%
%TO.N,Net-(U3-DQ)*%
X98806000Y-72898000D03*
D11*
%TO.P,U3,1,GND*%
%TO.N,Net-(SW1-C)*%
X100076000Y-72898000D03*
%TD*%
D16*
%TO.P,U1,12,CC1*%
%TO.N,Net-(Q1-C)*%
X104394000Y-77216000D03*
%TO.P,U1,11,a*%
%TO.N,Net-(A1-D2)*%
X106934000Y-77216000D03*
%TO.P,U1,10,f*%
%TO.N,Net-(A1-D7)*%
X109474000Y-77216000D03*
%TO.P,U1,9,CC2*%
%TO.N,Net-(Q2-C)*%
X112014000Y-77216000D03*
%TO.P,U1,8,CC3*%
%TO.N,Net-(Q3-C)*%
X114554000Y-77216000D03*
%TO.P,U1,7,b*%
%TO.N,Net-(A1-D3)*%
X117094000Y-77216000D03*
%TO.P,U1,6,CC4*%
%TO.N,Net-(Q4-C)*%
X117094000Y-92456000D03*
%TO.P,U1,5,g*%
%TO.N,Net-(A1-D8)*%
X114554000Y-92456000D03*
%TO.P,U1,4,c*%
%TO.N,Net-(A1-D4)*%
X112014000Y-92456000D03*
%TO.P,U1,3,DPX*%
%TO.N,Net-(A1-D10)*%
X109474000Y-92456000D03*
%TO.P,U1,2,d*%
%TO.N,Net-(A1-D5)*%
X106934000Y-92456000D03*
D17*
%TO.P,U1,1,e*%
%TO.N,Net-(A1-D6)*%
X104394000Y-92456000D03*
%TD*%
D18*
%TO.P,D1,1,K*%
%TO.N,Net-(D1-K)*%
X89916000Y-71628000D03*
D19*
%TO.P,D1,2,A*%
%TO.N,Net-(A1-A3)*%
X87376000Y-71628000D03*
%TD*%
D20*
%TO.N,Net-(U3-DQ)*%
X101298100Y-70344800D03*
%TO.N,Net-(Q3-C)*%
X116086400Y-106268800D03*
%TO.N,Net-(Q3-B)*%
X128760700Y-104747000D03*
X126257600Y-75364800D03*
%TO.N,Net-(Q2-C)*%
X112737400Y-91280200D03*
%TO.N,Net-(Q2-B)*%
X131306900Y-70568200D03*
X110236600Y-68393200D03*
%TO.N,Net-(Q1-B)*%
X131359600Y-73947500D03*
%TO.N,Net-(A1-A0)*%
X100476900Y-70598400D03*
%TO.N,Net-(A1-D13)*%
X92843900Y-71217300D03*
%TO.N,Net-(A1-A1)*%
X128571900Y-103567400D03*
%TO.N,Net-(A1-D9)*%
X119011300Y-94631600D03*
%TO.N,Net-(A1-D12)*%
X110236600Y-89051800D03*
%TO.N,Net-(A1-GND-Pad29)*%
X129959600Y-103927800D03*
%TO.N,Net-(A1-A3)*%
X106774700Y-80557800D03*
%TO.N,Net-(A1-D11)*%
X93546800Y-72274500D03*
%TO.N,Net-(SW1-C)*%
X98270000Y-98377900D03*
%TD*%
D21*
%TO.N,Net-(D1-K)*%
X89916000Y-71628000D02*
X91117700Y-71628000D01*
X133233700Y-75808300D02*
X135128000Y-73914000D01*
X130830800Y-75808300D02*
X133233700Y-75808300D01*
X130721000Y-75918100D02*
X130830800Y-75808300D01*
X130721000Y-75918100D02*
X130830800Y-75808300D01*
X95644700Y-76155000D02*
X91117700Y-71628000D01*
X125629000Y-76155000D02*
X95644700Y-76155000D01*
X125842200Y-76368200D02*
X125629000Y-76155000D01*
X130270900Y-76368200D02*
X125842200Y-76368200D01*
X130721000Y-75918100D02*
X130270900Y-76368200D01*
%TO.N,Net-(U3-DQ)*%
X126208500Y-69820500D02*
X128016000Y-71628000D01*
X101822400Y-69820500D02*
X126208500Y-69820500D01*
X101298100Y-70344800D02*
X101822400Y-69820500D01*
X101298100Y-70344800D02*
X101298100Y-70223600D01*
X101298100Y-70223600D02*
X101298100Y-70344800D01*
%TO.N,Net-(U2-DQ)*%
X104648000Y-72898000D02*
X104648000Y-73949700D01*
X130554700Y-75516400D02*
X130718000Y-75353100D01*
X130554700Y-75516400D02*
X130718000Y-75353100D01*
X131402900Y-75353100D02*
X135128000Y-71628000D01*
X130718000Y-75353100D02*
X131402900Y-75353100D01*
X130319300Y-75751800D02*
X130554700Y-75516400D01*
X126721500Y-75751800D02*
X130319300Y-75751800D01*
X126506800Y-75966500D02*
X126721500Y-75751800D01*
X126008500Y-75966500D02*
X126506800Y-75966500D01*
X125795300Y-75753300D02*
X126008500Y-75966500D01*
X106451600Y-75753300D02*
X125795300Y-75753300D01*
X104648000Y-73949700D02*
X106451600Y-75753300D01*
%TO.N,Net-(Q3-C)*%
X117759300Y-107941700D02*
X116086400Y-106268800D01*
X133270000Y-107941700D02*
X117759300Y-107941700D01*
X133270000Y-106890000D02*
X133270000Y-107941700D01*
X116086400Y-106268800D02*
X116086400Y-107941700D01*
X116086400Y-107941700D02*
X116086400Y-106268800D01*
%TO.N,Net-(Q3-B)*%
X129852000Y-105838300D02*
X128760700Y-104747000D01*
X132000000Y-105838300D02*
X129852000Y-105838300D01*
X110149600Y-75351600D02*
X108712000Y-73914000D01*
X126244400Y-75351600D02*
X110149600Y-75351600D01*
X126257600Y-75364800D02*
X126244400Y-75351600D01*
X132000000Y-106890000D02*
X132000000Y-105838300D01*
%TO.N,Net-(Q2-C)*%
X133270000Y-101890000D02*
X133270000Y-100838300D01*
X122886400Y-91280200D02*
X112737400Y-91280200D01*
X132444500Y-100838300D02*
X122886400Y-91280200D01*
X133270000Y-100838300D02*
X132444500Y-100838300D01*
%TO.N,Net-(Q2-B)*%
X129131900Y-68393200D02*
X110236600Y-68393200D01*
X131306900Y-70568200D02*
X129131900Y-68393200D01*
X110236600Y-68393200D02*
X108712000Y-68393200D01*
X108712000Y-68393200D02*
X110236600Y-68393200D01*
X131306900Y-70568200D02*
X131306900Y-68393200D01*
X131306900Y-68393200D02*
X131306900Y-70568200D01*
%TO.N,Net-(Q1-B)*%
X131359600Y-73947500D02*
X131359600Y-74034100D01*
X131359600Y-74034100D02*
X131359600Y-73947500D01*
X116859900Y-74949900D02*
X115824000Y-73914000D01*
X125821700Y-74949900D02*
X116859900Y-74949900D01*
X126008500Y-74763100D02*
X125821700Y-74949900D01*
X126506800Y-74763100D02*
X126008500Y-74763100D01*
X126695100Y-74951400D02*
X126506800Y-74763100D01*
X130442300Y-74951400D02*
X126695100Y-74951400D01*
X131359600Y-74034100D02*
X130442300Y-74951400D01*
X131359600Y-73947500D02*
X131359600Y-74034100D01*
%TO.N,Net-(Q1-C)*%
X110524200Y-83346200D02*
X104394000Y-77216000D01*
X120667900Y-83346200D02*
X110524200Y-83346200D01*
X133270000Y-95948300D02*
X120667900Y-83346200D01*
X133270000Y-97000000D02*
X133270000Y-95948300D01*
%TO.N,Net-(A1-D8)*%
X99540000Y-96592000D02*
X100641700Y-96592000D01*
X111889800Y-95120200D02*
X114554000Y-92456000D01*
X101885200Y-95120200D02*
X111889800Y-95120200D01*
X100641700Y-96363700D02*
X101885200Y-95120200D01*
X100641700Y-96592000D02*
X100641700Y-96363700D01*
%TO.N,Net-(A1-A0)*%
X100476900Y-70314400D02*
X100476900Y-70598400D01*
X101372500Y-69418800D02*
X100476900Y-70314400D01*
X127838800Y-69418800D02*
X101372500Y-69418800D01*
X130048000Y-71628000D02*
X127838800Y-69418800D01*
%TO.N,Net-(A1-D13)*%
X92843900Y-71217300D02*
X92843900Y-71601900D01*
X92843900Y-71601900D02*
X92843900Y-71217300D01*
X96509100Y-71435600D02*
X96344300Y-71600400D01*
X96509100Y-71435600D02*
X96344300Y-71600400D01*
X93227000Y-71600400D02*
X92843900Y-71217300D01*
X96344300Y-71600400D02*
X93227000Y-71600400D01*
X114419700Y-70223700D02*
X115824000Y-71628000D01*
X102270200Y-70223700D02*
X114419700Y-70223700D01*
X101547300Y-70946600D02*
X102270200Y-70223700D01*
X101264100Y-70946600D02*
X101547300Y-70946600D01*
X101010500Y-71200200D02*
X101264100Y-70946600D01*
X96744500Y-71200200D02*
X101010500Y-71200200D01*
X96509100Y-71435600D02*
X96744500Y-71200200D01*
%TO.N,Net-(A1-A1)*%
X107804600Y-103567400D02*
X99540000Y-111832000D01*
X128571900Y-103567400D02*
X107804600Y-103567400D01*
%TO.N,Net-(A1-D10)*%
X108284500Y-93645500D02*
X109474000Y-92456000D01*
X98370500Y-93645500D02*
X108284500Y-93645500D01*
X95561700Y-96454300D02*
X98370500Y-93645500D01*
X95561700Y-96592000D02*
X95561700Y-96454300D01*
X94460000Y-96592000D02*
X95561700Y-96592000D01*
%TO.N,Net-(A1-D9)*%
X98101700Y-96820300D02*
X98101700Y-96592000D01*
X98978000Y-97696600D02*
X98101700Y-96820300D01*
X112702600Y-97696600D02*
X98978000Y-97696600D01*
X113510000Y-96889200D02*
X112702600Y-97696600D01*
X113510000Y-96264600D02*
X113510000Y-96889200D01*
X115143000Y-94631600D02*
X113510000Y-96264600D01*
X119011300Y-94631600D02*
X115143000Y-94631600D01*
X97000000Y-96592000D02*
X98101700Y-96592000D01*
%TO.N,Net-(A1-D12)*%
X97884200Y-89051800D02*
X110236600Y-89051800D01*
X90481700Y-96454300D02*
X97884200Y-89051800D01*
X90481700Y-96592000D02*
X90481700Y-96454300D01*
X89380000Y-96592000D02*
X90481700Y-96592000D01*
X110236600Y-89051800D02*
X110744000Y-89051800D01*
X110744000Y-89051800D02*
X110236600Y-89051800D01*
%TO.N,Net-(A1-A2)*%
X100978300Y-112060300D02*
X100978300Y-111832000D01*
X99359900Y-113678700D02*
X100978300Y-112060300D01*
X91180800Y-113678700D02*
X99359900Y-113678700D01*
X90170000Y-114689500D02*
X91180800Y-113678700D01*
X102080000Y-111832000D02*
X100978300Y-111832000D01*
%TO.N,Net-(A1-GND-Pad29)*%
X132026700Y-103927800D02*
X129959600Y-103927800D01*
X134156100Y-106057200D02*
X132026700Y-103927800D01*
X134156100Y-107738600D02*
X134156100Y-106057200D01*
X131164400Y-110730300D02*
X134156100Y-107738600D01*
X124465600Y-110730300D02*
X131164400Y-110730300D01*
X123501700Y-111694200D02*
X124465600Y-110730300D01*
X123501700Y-111832000D02*
X123501700Y-111694200D01*
X122400000Y-111832000D02*
X123501700Y-111832000D01*
%TO.N,Net-(A1-A3)*%
X96305800Y-80557800D02*
X106774700Y-80557800D01*
X87376000Y-71628000D02*
X96305800Y-80557800D01*
%TO.N,Net-(A1-D11)*%
X93546800Y-72274500D02*
X93190200Y-72274500D01*
X93190200Y-72274500D02*
X93546800Y-72274500D01*
X112789400Y-70625400D02*
X113792000Y-71628000D01*
X108110500Y-70625400D02*
X112789400Y-70625400D01*
X107293700Y-71442200D02*
X108110500Y-70625400D01*
X101336500Y-71442200D02*
X107293700Y-71442200D01*
X101176800Y-71601900D02*
X101336500Y-71442200D01*
X97111000Y-71601900D02*
X101176800Y-71601900D01*
X96438400Y-72274500D02*
X97111000Y-71601900D01*
X93546800Y-72274500D02*
X96438400Y-72274500D01*
%TO.N,Net-(SW1-C)*%
X100076000Y-72898000D02*
X100902700Y-72898000D01*
X117320000Y-96592000D02*
X116218300Y-96592000D01*
X116218300Y-96729700D02*
X116218300Y-96592000D01*
X114570100Y-98377900D02*
X116218300Y-96729700D01*
X98270000Y-98377900D02*
X114570100Y-98377900D01*
X101954400Y-71846300D02*
X105918000Y-71846300D01*
X100902700Y-72898000D02*
X101954400Y-71846300D01*
X105918000Y-72898000D02*
X105918000Y-72561200D01*
X105918000Y-72561200D02*
X105918000Y-71846300D01*
X128905000Y-72771000D02*
X130048000Y-73914000D01*
X106127800Y-72771000D02*
X128905000Y-72771000D01*
X105918000Y-72561200D02*
X106127800Y-72771000D01*
%TO.N,Net-(A1-+5V)*%
X88699000Y-115718500D02*
X87670000Y-114689500D01*
X112469500Y-115718500D02*
X88699000Y-115718500D01*
X116218300Y-111969700D02*
X112469500Y-115718500D01*
X116218300Y-111832000D02*
X116218300Y-111969700D01*
X117320000Y-111832000D02*
X116218300Y-111832000D01*
X97536000Y-72898000D02*
X97536000Y-73949700D01*
X103378000Y-72898000D02*
X102551300Y-72898000D01*
X101499600Y-73949700D02*
X97536000Y-73949700D01*
X102551300Y-72898000D02*
X101499600Y-73949700D01*
%TD*%
M02*
